<svg xmlns="http://www.w3.org/2000/svg" width="300" height="300" viewBox="0 0 300 300"><g transform="translate(198 -907.645)"><rect width="300" height="300" transform="translate(-198 907.645)" fill="#fff" opacity="0"/><g transform="translate(-169.073 1178.085) rotate(-90)"><path d="M120.338,69.66s-14.874,38.431-23.574,40.972c-8.725,2.585-39.444,9.232-39.444,9.232s-20.486-4.607-24.578-11.276S15.326,49.689,18.9,43.536C22.5,37.4,41.45,21.512,53.722,23.063c12.306,1.52,26.64,11.267,26.64,11.267s10.765,32.78,7.677,37.9c-3.053,5.122-25.072,12.8-28.674,11.272C55.783,81.962,48.6,59.948,48.6,59.948s-9.721-3.594-12.276,3.572c-2.572,7.167,4.083,31.256,8.18,33.811s44.073,0,52.764-14.337C106,68.638,99.834,23.565,95.742,13.32S76.784,0,76.784,0,15.326,4.607,4.045,30.731c-11.254,26.137,3.581,73.254,12.809,85.041s50.7,24.573,70.175,18.948,42-49.693,41.483-58.908C128.015,66.612,120.338,69.66,120.338,69.66Z" transform="translate(60.9 58.986)" fill="#e28305"/><path d="M0,8.2c0,6.651,9.206,10.752,12.289,6.651C15.35,10.756,9.206,0,9.206,0S0,1.533,0,8.2Z" transform="translate(175.672 107.727)" fill="#e28305"/><path d="M0,8.2c0,4.087,9.228,8.179,10.752,5.114C12.293,10.241,5.625,0,5.625,0,1.537,2.551,0,4.092,0,8.2Z" transform="translate(172.532 88.337)" fill="#e28305"/><path d="M3.762,0C-2.392,2.066-.854,17.416,7.338,14.87c8.188-2.576,4.612-6.66,4.074-9.743C10.924,2.066,3.762,0,3.762,0Z" transform="translate(169.793 67.398)" fill="#e28305"/><path d="M30.229.116C24.08-1.946.511,24.187.511,24.187L0,29.816S36.885,42.638,37.4,41.092,36.387,2.141,30.229.116Z" transform="translate(141.13 10.166)" fill="#e28305"/><path d="M8.7.037C5.642-1.5,0,46.136,0,46.136s18.451-7.175,25.609-7.682C32.793,37.952,11.787,1.574,8.7.037Z" transform="translate(91.807 0)" fill="#e28305"/><path d="M6.66,0,0,2.555s4.612,37.392,7.153,41.5C9.717,48.147,24.058,28.173,28.674,26.12S6.66,0,6.66,0Z" transform="translate(48.289 25.654)" fill="#e28305"/><path d="M5.171,12.8C-.947,15.359.062,15.875.062,18.967c0,3.057,39.44,24.059,37.4,17.4C35.405,29.714,42.576,0,42.576,0S11.338,10.249,5.171,12.8Z" transform="translate(0 74.008)" fill="#e28305"/><path d="M30.5,0S-3.338,26.124.269,28.172c3.577,2.053,40.466,5.114,37.9,3.585S30.5,0,30.5,0Z" transform="translate(11.069 130.143)" fill="#e28305"/><path d="M11.455,0S2.738,28.181,1.2,35.347c-1.52,7.171-2.559,16.4,3.092,17.412C9.922,53.777,41.679,23.049,38.1,22.015,34.5,21,11.455,0,11.455,0Z" transform="translate(44.486 172.348)" fill="#e28305"/><path d="M28.177,8.193C22.526,7.184,0,0,0,0S6.655,39.954,10.232,38.413C13.831,36.893,33.806,9.215,28.177,8.193Z" transform="translate(94.938 202.061)" fill="#e28305"/><path d="M27.163.273C23.067,3.863,0,5.413,0,5.413S9.237,17.178,10.756,19.746c1.55,2.546,19.473,12.787,21.543,11.267C34.347,29.471,31.26-3.3,27.163.273Z" transform="translate(141.091 203.833)" fill="#e28305"/><path d="M21.408,4.1A63.244,63.244,0,0,0,13.717,0S5.52,33.3.4,37.4s40.479,5.131,42.527,0S24.495,6.162,21.408,4.1Z" transform="translate(183.505 158.677)" fill="#e28305"/><path d="M0,0S5.118,33.3,3.59,38.431,37.907,27.159,42.016,23.055C46.112,18.979,0,0,0,0Z" transform="translate(198.244 106.647)" fill="#e28305"/><path d="M0,.085s8.738,29.7,8.738,35.854,35.845-12.3,36.854-14.852C46.637,18.514,0-1.461,0,.085Z" transform="translate(190.558 56.583)" fill="#e28305"/></g></g></svg>